<svg data-slot="logo" xmlns="http://www.w3.org/2000/svg" width="80" height="56" viewBox="0 0 51 36" fill="#282C33" aria-label="TwelveLabs" role="img" class="shrink-0 text-[#282C33]" style="color:#282C33;width:80px;height:auto"><rect x="10.7773" y="12.354" width="15.8003" height="2.14384" rx="0.629023"></rect><rect y="12.354" width="8.66596" height="2.14384" rx="0.629023"></rect><rect x="30.5078" y="12.354" width="9.89356" height="2.14384" rx="0.629023"></rect><rect x="31.9258" y="9.28223" width="8.47572" height="2.14384" rx="0.629023"></rect><rect x="41.5156" y="9.28223" width="6.72128" height="2.14384" rx="0.629023"></rect><rect x="38.6523" y="6.14307" width="7.65101" height="2.14384" rx="0.629023"></rect><rect x="41.0762" y="3.07227" width="2.25115" height="2.14384" rx="0.629023"></rect><rect x="18.2578" y="27.7129" width="3.89626" height="2.14384" rx="0.629023"></rect><rect x="25.0234" y="27.7129" width="2.55289" height="2.14384" rx="0.629023"></rect><rect x="28.7539" y="27.7129" width="6.88449" height="2.14384" rx="0.629023"></rect><rect x="32.2031" y="24.6406" width="2.85752" height="2.14384" rx="0.629023"></rect><rect x="12.8887" y="27.7129" width="2.25115" height="2.14384" rx="0.629023"></rect><rect x="23.2793" y="30.7842" width="2.25115" height="2.14384" rx="0.629023"></rect><rect x="21.082" y="33.8564" width="2.14379" height="2.14384" rx="0.629023"></rect><rect x="29.5879" width="2.79003" height="2.14384" rx="0.629023"></rect><rect x="13.7168" y="9.28223" width="7.13676" height="2.14384" rx="0.629023"></rect><rect x="26.9492" y="3.07227" width="4.33515" height="2.14384" rx="0.629023"></rect><rect x="24.2891" y="6.14307" width="6.99567" height="2.14384" rx="0.629023"></rect><rect x="46.0508" y="12.354" width="4.0822" height="2.14384" rx="0.629023"></rect><rect x="7.52148" y="15.4258" width="20.1671" height="2.14384" rx="0.629023"></rect><rect x="25.8281" y="21.5693" width="7.87882" height="2.14384" rx="0.629023"></rect><rect x="10.7773" y="18.498" width="25.6213" height="2.14384" rx="0.629023"></rect><rect x="6.85547" y="21.5693" width="9.52543" height="2.14384" rx="0.629023"></rect><rect x="15.5527" y="24.6406" width="3.12455" height="2.14384" rx="0.629023"></rect><rect x="26.5781" y="24.6406" width="3.36388" height="2.14384" rx="0.629023"></rect><rect x="9.78516" y="24.6406" width="3.15807" height="2.14384" rx="0.629023"></rect><rect x="30.5078" y="15.4258" width="8.14501" height="2.14384" rx="0.629023"></rect><rect x="32.4004" y="6.12012" width="2.25115" height="2.14384" rx="0.629023"></rect></svg>
